<svg width="18" height="19" viewBox="0 0 18 19" xmlns="http://www.w3.org/2000/svg">
<path d="M10.5345 2.119L7.42349 2.1115H7.42199C4.14149 2.1115 1.57199 4.68175 1.57199 7.963C1.57199 11.0365 3.96149 13.3675 7.17074 13.4905V16.3615C7.17074 16.4425 7.20374 16.576 7.26074 16.6637C7.36724 16.8325 7.54874 16.924 7.73474 16.924C7.83824 16.924 7.94249 16.8955 8.03624 16.8355C8.23424 16.7095 12.891 13.7305 14.1022 12.706C15.5287 11.4985 16.3822 9.7285 16.3845 7.972V7.95925C16.38 4.684 13.812 2.119 10.5345 2.11825V2.119ZM13.3747 11.848C12.5242 12.568 9.72824 14.4017 8.29574 15.3302V12.94C8.29574 12.6295 8.04449 12.3775 7.73324 12.3775H7.43624C4.69124 12.3775 2.69774 10.5205 2.69774 7.963C2.69774 5.3125 4.77374 3.2365 7.42274 3.2365L10.533 3.244H10.5345C13.1835 3.244 15.2595 5.3185 15.261 7.966C15.2587 9.3985 14.5545 10.849 13.3755 11.848H13.3747Z" fill="#6E767D"/>
</svg>
