<svg width="18" height="19" viewBox="0 0 18 19"  xmlns="http://www.w3.org/2000/svg">
<path d="M9 16.666H8.9895C7.05225 16.63 1.4625 11.5795 1.4625 6.796C1.4625 4.498 3.35625 2.4805 5.51475 2.4805C7.23225 2.4805 8.38725 3.6655 8.99925 4.528C9.60975 3.667 10.7647 2.4805 12.483 2.4805C14.643 2.4805 16.536 4.498 16.536 6.79675C16.536 11.5787 10.9455 16.6292 9.00825 16.6645H9V16.666ZM5.5155 3.60625C3.9555 3.60625 2.58825 5.09725 2.58825 6.7975C2.58825 11.1025 7.86375 15.4945 9.00075 15.541C10.1392 15.4945 15.4132 11.1032 15.4132 6.7975C15.4132 5.09725 14.046 3.60625 12.486 3.60625C10.59 3.60625 9.531 5.80825 9.522 5.83C9.3495 6.2515 8.655 6.2515 8.48175 5.83C8.47125 5.8075 7.413 3.60625 5.51625 3.60625H5.5155Z" fill="#6E767D"/>
</svg>
