<svg width="18" height="19" viewBox="0 0 18 19"  xmlns="http://www.w3.org/2000/svg">
<path d="M17.8275 12.19C17.6085 11.9703 17.2523 11.9703 17.0325 12.19L15.3675 13.855V6.175C15.3675 4.624 14.1053 3.3625 12.555 3.3625H8.1675C7.857 3.3625 7.605 3.6145 7.605 3.925C7.605 4.2355 7.857 4.4875 8.1675 4.4875H12.555C13.485 4.4875 14.2425 5.245 14.2425 6.175V13.855L12.5775 12.19C12.3578 11.9703 12.0015 11.9703 11.7825 12.19C11.5635 12.4098 11.562 12.766 11.7825 12.985L14.4075 15.61C14.5163 15.7203 14.6603 15.775 14.805 15.775C14.9498 15.775 15.0923 15.721 15.2025 15.61L17.8275 12.985C18.048 12.766 18.048 12.4098 17.8275 12.19ZM9.8325 14.65H5.445C4.515 14.65 3.7575 13.8925 3.7575 12.9625V5.2825L5.4225 6.9475C5.5335 7.05775 5.6775 7.1125 5.8215 7.1125C5.9655 7.1125 6.1095 7.05775 6.219 6.9475C6.43875 6.72775 6.43875 6.3715 6.219 6.1525L3.594 3.5275C3.37425 3.307 3.018 3.307 2.799 3.5275L0.174004 6.1525C-0.0464962 6.3715 -0.0464962 6.72775 0.174004 6.9475C0.394504 7.16725 0.749254 7.16725 0.969004 6.9475L2.634 5.2825V12.9625C2.634 14.5135 3.89625 15.775 5.4465 15.775H9.834C10.1445 15.775 10.3965 15.523 10.3965 15.2125C10.3965 14.902 10.1438 14.65 9.834 14.65H9.8325Z" fill="#6E767D"/>
</svg>
