<svg width="18" height="19" viewBox="0 0 18 19"  xmlns="http://www.w3.org/2000/svg">
<path d="M13.1475 6.04L9.39749 2.29C9.17774 2.07025 8.82149 2.07025 8.60249 2.29L4.85249 6.04C4.63199 6.25975 4.63199 6.616 4.85249 6.835C5.07299 7.054 5.42774 7.0555 5.64749 6.835L8.43749 4.045V11.6875C8.43749 11.998 8.68949 12.25 8.99999 12.25C9.31049 12.25 9.56249 11.998 9.56249 11.6875V4.045L12.3525 6.835C12.462 6.94525 12.606 7 12.75 7C12.894 7 13.038 6.946 13.1475 6.835C13.3672 6.61525 13.3672 6.25975 13.1475 6.04Z" fill="#6E767D"/>
<path d="M14.781 16.8955H3.219C2.271 16.8955 1.5 16.1245 1.5 15.1765V10.9375C1.5 10.627 1.752 10.375 2.0625 10.375C2.373 10.375 2.625 10.627 2.625 10.9375V15.1765C2.625 15.5043 2.89125 15.7705 3.219 15.7705H14.781C15.1088 15.7705 15.375 15.5043 15.375 15.1765V10.9375C15.375 10.627 15.627 10.375 15.9375 10.375C16.248 10.375 16.5 10.627 16.5 10.9375V15.1765C16.5 16.1245 15.729 16.8955 14.781 16.8955Z" fill="#6E767D"/>
</svg>
