<svg width="26" height="26" viewBox="0 0 26 26" fill="none" xmlns="http://www.w3.org/2000/svg">
<path d="M24.4616 7.9625L13.5146 2.05508C13.1928 1.88175 12.8061 1.88175 12.4854 2.05508L1.54372 7.9625C1.01722 8.2485 0.821141 8.905 1.10497 9.4315C1.29997 9.79441 1.67372 10.0002 2.05831 10.0002C2.23164 10.0002 2.40931 9.95908 2.57289 9.87025L3.36806 9.44125L5.09056 21.6287C5.32456 22.9439 6.50972 23.8626 7.97222 23.8626H18.0277C19.4902 23.8626 20.6754 22.9439 20.9116 21.6006L22.6319 9.44016L23.4303 9.87133C23.9557 10.1562 24.6133 9.96016 24.8971 9.43366C25.1821 8.90716 24.9838 8.24958 24.4595 7.96575L24.4616 7.9625ZM13 16.7212C11.0554 16.7212 9.47914 15.145 9.47914 13.2004C9.47914 11.2558 11.0554 9.67958 13 9.67958C14.9446 9.67958 16.5208 11.2558 16.5208 13.2004C16.5208 15.145 14.9446 16.7212 13 16.7212Z" fill="#1DA1F2"/>
</svg>
