<svg width="26" height="26" viewBox="0 0 26 26" fill="none" xmlns="http://www.w3.org/2000/svg">
<path d="M21.3959 23.8333H4.60419C3.26085 23.8333 2.16669 22.7392 2.16669 21.3958V4.60417C2.16669 3.26084 3.26085 2.16667 4.60419 2.16667H21.3959C22.7392 2.16667 23.8334 3.26084 23.8334 4.60417V21.3958C23.8334 22.7392 22.7392 23.8333 21.3959 23.8333ZM4.60419 3.79167C4.15569 3.79167 3.79169 4.15676 3.79169 4.60417V21.3958C3.79169 21.8433 4.15569 22.2083 4.60419 22.2083H21.3959C21.8444 22.2083 22.2084 21.8433 22.2084 21.3958V4.60417C22.2084 4.15676 21.8444 3.79167 21.3959 3.79167H4.60419Z" fill="white"/>
<path d="M18.4167 9.36H7.58337C7.13487 9.36 6.77087 8.99492 6.77087 8.5475C6.77087 8.10008 7.13487 7.735 7.58337 7.735H18.4167C18.8652 7.735 19.2292 8.09792 19.2292 8.5475C19.2292 8.99708 18.8652 9.36 18.4167 9.36ZM18.4167 13.8125H7.58337C7.13487 13.8125 6.77087 13.4485 6.77087 13C6.77087 12.5515 7.13487 12.1875 7.58337 12.1875H18.4167C18.8652 12.1875 19.2292 12.5515 19.2292 13C19.2292 13.4485 18.8652 13.8125 18.4167 13.8125ZM13 18.265H7.58337C7.13487 18.265 6.77087 17.9021 6.77087 17.4525C6.77087 17.0029 7.13487 16.64 7.58337 16.64H13C13.4485 16.64 13.8125 17.0051 13.8125 17.4525C13.8125 17.8999 13.4485 18.265 13 18.265Z" fill="white"/>
</svg>
