<svg width="22" height="22" viewBox="0 0 22 22" fill="none" xmlns="http://www.w3.org/2000/svg">
<path d="M11 7.52585C9.08418 7.52585 7.52585 9.08418 7.52585 11C7.52585 12.9158 9.08418 14.4742 11 14.4742C12.9158 14.4742 14.4742 12.9158 14.4742 11C14.4742 9.08418 12.9158 7.52585 11 7.52585ZM11 13.0992C9.84318 13.0992 8.90085 12.1587 8.90085 11C8.90085 9.84135 9.84502 8.90085 11 8.90085C12.155 8.90085 13.0992 9.84135 13.0992 11C13.0992 12.1587 12.1568 13.0992 11 13.0992Z" fill="#1DA1F2"/>
<path d="M11.33 20.5104H10.6682C9.58376 20.5104 8.69368 19.6964 8.59468 18.6184L8.58185 18.4837C8.55893 18.2206 8.3921 17.9951 8.14918 17.8933C7.88701 17.7833 7.61568 17.8338 7.41768 17.9988L7.31135 18.0877C6.51568 18.7523 5.2461 18.6954 4.50635 17.9593L4.03885 17.4918C3.27251 16.7218 3.21751 15.5173 3.91051 14.6868L4.00035 14.5787C4.17085 14.3752 4.21118 14.0993 4.11218 13.8573C4.01135 13.6079 3.78401 13.4411 3.52001 13.4173L3.38251 13.4044C2.30085 13.3063 1.48776 12.4144 1.48776 11.3309V10.6691C1.48776 9.58468 2.30176 8.69459 3.37976 8.59559L3.52276 8.58276C3.78401 8.55984 4.0086 8.39301 4.11126 8.14918C4.2121 7.90168 4.17085 7.62393 4.00126 7.42043L3.9151 7.31409C3.22118 6.48176 3.27526 5.27634 4.04068 4.50909L4.51001 4.03976C5.24701 3.30276 6.51568 3.24684 7.31501 3.91143L7.42135 4.00126C7.62118 4.16993 7.90534 4.21209 8.14551 4.11309C8.39301 4.01043 8.55985 3.78493 8.58276 3.52368L8.5956 3.38343C8.69368 2.30176 9.5856 1.48959 10.6691 1.48959H11.3309C12.4153 1.48959 13.3054 2.30359 13.4044 3.38159L13.4173 3.52459C13.4402 3.78584 13.6061 4.01043 13.8499 4.11126C14.1038 4.21851 14.3816 4.16809 14.5778 4.00401L14.6878 3.91051C15.4825 3.24776 16.7539 3.30368 17.4928 4.03884L17.9603 4.50818C18.7266 5.27634 18.7816 6.48176 18.0886 7.31318L17.9969 7.42134C17.8246 7.62301 17.7824 7.89984 17.8842 8.14368C17.9868 8.39118 18.2142 8.55618 18.4763 8.58184L18.6157 8.59468C19.6973 8.69276 20.5104 9.58468 20.5104 10.6682V11.3309C20.5104 12.4153 19.6964 13.3054 18.6184 13.4044L18.4763 13.4173C18.216 13.4393 17.9905 13.6052 17.8897 13.8481C17.7861 14.0974 17.8283 14.3743 17.9969 14.5768L18.0886 14.6868C18.7816 15.5164 18.7266 16.7218 17.9603 17.4918L17.4928 17.9593C16.753 18.6963 15.4853 18.7513 14.6878 18.0877L14.5823 17.9997C14.3834 17.8319 14.0965 17.7888 13.8582 17.8878C13.6079 17.9923 13.4411 18.2178 13.4182 18.48L13.4053 18.6175C13.3073 19.6928 12.4153 20.5058 11.3318 20.5058L11.33 20.5104ZM7.87143 16.4588C8.14643 16.4588 8.41501 16.5138 8.66893 16.6192C9.3931 16.9198 9.8826 17.5853 9.95226 18.3572L9.9651 18.4919C9.99901 18.8586 10.3015 19.1336 10.6709 19.1336H11.3328C11.6994 19.1336 12.0019 18.8586 12.0368 18.4919L12.0496 18.3563C12.1193 17.5844 12.6088 16.9198 13.3256 16.6219C14.0525 16.3194 14.8803 16.4551 15.4642 16.9428L15.5678 17.0289C15.7309 17.1646 15.9033 17.1939 16.0197 17.1939C16.2085 17.1939 16.3863 17.1206 16.5202 16.9858L16.9877 16.5183C17.248 16.258 17.2673 15.8492 17.0317 15.5668L16.94 15.4568C16.4432 14.861 16.3194 14.0452 16.6173 13.3274C16.9162 12.6033 17.5817 12.1174 18.3535 12.0468L18.4956 12.034C18.8595 12.0001 19.1373 11.6976 19.1373 11.3282V10.6663C19.1373 10.2997 18.8595 9.99718 18.4938 9.96234L18.3544 9.94951C17.5789 9.87801 16.9153 9.39034 16.6173 8.67259C16.3185 7.95026 16.4432 7.13443 16.9409 6.53951L17.0326 6.43134C17.2682 6.14718 17.2489 5.73834 16.9886 5.47801L16.5211 5.01051C16.3873 4.87576 16.2094 4.80243 16.0206 4.80243C15.9042 4.80243 15.7318 4.83176 15.5696 4.96743L15.4596 5.05909C14.8784 5.54309 14.0388 5.67326 13.3311 5.38359C12.6088 5.08384 12.1211 4.41926 12.0505 3.64559L12.0377 3.50351C12.0056 3.13959 11.7031 2.86184 11.3346 2.86184H10.6718C10.3052 2.86184 10.0027 3.13959 9.96784 3.50534L9.95501 3.64468C9.88534 4.41743 9.39768 5.08201 8.68085 5.37993C7.95943 5.67876 7.12893 5.54768 6.54501 5.05909L6.43685 4.97109C6.27185 4.83359 6.09951 4.80609 5.9831 4.80609C5.79426 4.80609 5.61643 4.87943 5.4826 5.01326L5.01326 5.48076C4.75476 5.74109 4.73551 6.14993 4.9711 6.43226L5.06276 6.54043C5.55776 7.13901 5.68335 7.95576 5.38543 8.67168C5.08568 9.39401 4.4211 9.88168 3.64835 9.95226L3.50535 9.96509C3.14143 9.99901 2.86368 10.3015 2.86368 10.6709V11.3328C2.86368 11.6994 3.14143 12.0019 3.50718 12.0368L3.64468 12.0496C4.42201 12.1211 5.0866 12.6106 5.3836 13.3293C5.68151 14.0498 5.55776 14.8647 5.06001 15.4605L4.97201 15.5659C4.73368 15.8501 4.75385 16.2589 5.01418 16.5193L5.48168 16.9868C5.61551 17.1215 5.79335 17.1948 5.98218 17.1948C6.0986 17.1948 6.27093 17.1673 6.43318 17.0298L6.53951 16.9418C6.91168 16.6338 7.3856 16.4615 7.87143 16.4615V16.4588Z" fill="#1DA1F2"/>
</svg>
